<svg xmlns="http://www.w3.org/2000/svg" fill="none" viewBox="0 0 12 12"><path fill="var(--sl-c-000000,#000000)" fill-rule="evenodd" d="M5.1168000000000005 0.10200000000000001a4.2 4.2 0 0 0 -2.6999999999999997 7.900799999999999 1.7999999999999998 1.7999999999999998 0 0 1 0.51 -1.026l1.7999999999999998 -1.7999999999999998a1.7999999999999998 1.7999999999999998 0 0 1 2.5463999999999998 0l1.7999999999999998 1.7999999999999998a1.7999999999999998 1.7999999999999998 0 0 1 0.5244 1.3631999999999997 3 3 0 1 0 -1.536 -5.788799999999999A4.2 4.2 0 0 0 5.1168000000000005 0.10200000000000001m0.13319999999999999 11.147999999999998v-2.4H4.2a0.6 0.6 0 0 1 -0.4236 -1.0248l1.7999999999999998 -1.7999999999999998a0.6 0.6 0 0 1 0.8483999999999999 0l1.7999999999999998 1.7999999999999998a0.6 0.6 0 0 1 -0.42479999999999996 1.0248h-1.05v2.4a0.75 0.75 0 1 1 -1.5 0" clip-rule="evenodd" stroke-width="1.2"></path></svg>
