<svg xmlns="http://www.w3.org/2000/svg" fill="none" viewBox="0 0 12 12"><path fill="var(--sl-c-000000,#000000)" fill-rule="evenodd" d="M6 0a0.8999999999999999 0.8999999999999999 0 0 1 0.8999999999999999 0.8999999999999999l0 2.4564h0.8999999999999999a0.6 0.6 0 0 1 0.42479999999999996 1.0235999999999998l-1.7999999999999998 1.7999999999999998a0.6 0.6 0 0 1 -0.8495999999999999 0l-1.7999999999999998 -1.7999999999999998a0.6 0.6 0 0 1 0.42479999999999996 -1.0235999999999998h0.8999999999999999l0 -2.4564A0.8999999999999999 0.8999999999999999 0 0 1 6 0M0 6.8999999999999995a0.3 0.3 0 0 1 0.3 -0.3h2.9076a1.128 1.128 0 0 1 1.1303999999999998 1.1303999999999998c0 0.444 0.192 0.7728 0.48839999999999995 0.9995999999999999 0.3036 0.2328 0.7272 0.3624 1.1736 0.3624s0.87 -0.1296 1.1736 -0.3624c0.2964 -0.2268 0.48839999999999995 -0.5568 0.48839999999999995 -0.9995999999999999a1.128 1.128 0 0 1 1.1303999999999998 -1.1303999999999998H11.7a0.3 0.3 0 0 1 0.3 0.3v3.5999999999999996C12 11.328 11.328 12 10.5 12h-9C0.672 12 0 11.328 0 10.5z" clip-rule="evenodd" stroke-width="1.2"></path></svg>
