<svg xmlns="http://www.w3.org/2000/svg" fill="none" viewBox="0 0 12 12"><path fill="var(--sl-c-000000,#000000)" fill-rule="evenodd" d="m11.198400000000001 1.8816 0.1212 -0.1212zm0.8016 0.486a1.284 1.284 0 0 1 -0.378 0.9096L7.0176 7.8804a0.6 0.6 0 0 1 -0.3732 0.174l-2.2392 0.1872 -0.132 -0.0036a0.6 0.6 0 0 1 -0.516 -0.6444l0.1872 -2.2392 0.018 -0.10319999999999999a0.6 0.6 0 0 1 0.156 -0.2712L8.7204 0.3756h0.0012a1.2875999999999999 1.2875999999999999 0 0 1 1.8179999999999998 0l1.08 1.08h0.0012a1.284 1.284 0 0 1 0.378 0.9119999999999999m-1.0992 3.3276c0.414 0.0204 0.732 0.372 0.7128 0.7872a5.813999999999999 5.813999999999999 0 1 1 -6.096 -6.096 0.75 0.75 0 1 1 0.0732 1.4988000000000001 4.3152 4.3152 0 1 0 4.524 4.524 0.7512 0.7512 0 0 1 0.786 -0.714" clip-rule="evenodd" stroke-width="1.2"></path></svg>
