<svg xmlns="http://www.w3.org/2000/svg" fill="none" viewBox="0 0 60 60" id="Dashboard-Circle--Streamline-Micro" height="60" width="60">
  <desc>
    Dashboard Circle Streamline Icon: https://streamlinehq.com
  </desc>
  <g transform="translate(5 5) scale(0.8333333333)">
    <path fill="#000000" fill-rule="evenodd" d="M0 13.799999999999999a13.799999999999999 13.799999999999999 0 1 1 27.599999999999998 0 13.799999999999999 13.799999999999999 0 0 1 -27.599999999999998 0ZM46.17 0a13.799999999999999 13.799999999999999 0 1 0 0 27.599999999999998 13.799999999999999 13.799999999999999 0 0 0 0 -27.599999999999998ZM0 46.104a13.799999999999999 13.799999999999999 0 1 1 27.599999999999998 0 13.799999999999999 13.799999999999999 0 0 1 -27.599999999999998 0Zm46.17 -13.799999999999999a13.799999999999999 13.799999999999999 0 1 0 0 27.599999999999998 13.799999999999999 13.799999999999999 0 0 0 0 -27.599999999999998Z" clip-rule="evenodd" stroke-width="6"></path>
  </g>
</svg>
