<svg xmlns="http://www.w3.org/2000/svg" fill="none" viewBox="-0.6 -0.6 12 12"><path stroke="var(--sl-c-000000,#000000)" stroke-linecap="round" stroke-linejoin="round" d="M9.18 0.54h-7.5600000000000005a1.08 1.08 0 0 0 -1.08 1.08v7.5600000000000005a1.08 1.08 0 0 0 1.08 1.08h7.5600000000000005a1.08 1.08 0 0 0 1.08 -1.08v-7.5600000000000005a1.08 1.08 0 0 0 -1.08 -1.08m-6.48 3.24h3.24" stroke-width="1.2"></path><path stroke="var(--sl-c-000000,#000000)" stroke-linecap="round" stroke-linejoin="round" d="M7.0200000000000005 4.86a1.08 1.08 0 1 0 0 -2.16 1.08 1.08 0 0 0 0 2.16m1.08 2.16h-3.24m-1.08 1.08a1.08 1.08 0 1 0 0 -2.16 1.08 1.08 0 0 0 0 2.16" stroke-width="1.2"></path></svg>
