<svg xmlns="http://www.w3.org/2000/svg" fill="none" viewBox="0 0 14 14" id="Buttons-Up-1--Streamline-Core"><desc>Buttons Up 1 Streamline Icon: https://streamlinehq.com</desc><g id="buttons-up-1"><path id="Union" fill="#000000" fill-rule="evenodd" d="M4.5 2.5C4.5 1.11929 5.61929 0 7 0s2.5 1.11929 2.5 2.5S8.38071 5 7 5 4.5 3.88071 4.5 2.5Zm7 3.5c.5523 0 1 .44772 1 1s-.4477 1-1 1-1-.44772-1-1 .4477-1 1-1ZM14 7c0-1.38071-1.1193-2.5-2.5-2.5S9 5.61929 9 7s1.1193 2.5 2.5 2.5S14 8.38071 14 7Zm-7 3.5c-.55228 0-1 .4477-1 1s.44772 1 1 1 1-.4477 1-1-.44772-1-1-1Zm-2.5 1C4.5 10.1193 5.61929 9 7 9s2.5 1.1193 2.5 2.5S8.38071 14 7 14s-2.5-1.1193-2.5-2.5ZM2.5 6c.55228 0 1 .44772 1 1s-.44772 1-1 1-1-.44772-1-1 .44772-1 1-1ZM5 7c0-1.38071-1.11929-2.5-2.5-2.5S0 5.61929 0 7s1.11929 2.5 2.5 2.5S5 8.38071 5 7Z" clip-rule="evenodd"></path></g></svg>
