<svg xmlns="http://www.w3.org/2000/svg" fill="none" viewBox="0 0 14 14"><g id="chart-profit-growth-through-the-roof--chart-profit-growth-through-the-roof-over-perform"><path id="Union" fill="#000000" fill-rule="evenodd" d="M8.25.5c.41421 0 .75.335786.75.75v1.5c0 .41421-.33579.75-.75.75s-.75-.33579-.75-.75v-1.5c0-.414214.33579-.75.75-.75Zm3.962 1.28769c.2929.2929.2929.76777 0 1.06066l-1.1642 1.16422c-.2929.29289-.7678.29289-1.0607 0-.2929-.2929-.2929-.76777 0-1.06066l1.1642-1.16422c.2929-.29289.7678-.29289 1.0607 0ZM11.25 5c-.4142 0-.75.33579-.75.75s.3358.75.75.75h1.5c.4142 0 .75-.33579.75-.75S13.1642 5 12.75 5h-1.5Zm-5-2.25V2.5L2 2.5C1.17157 2.5.5 3.17158.5 4v3.5h1.51472c.95067 0 1.86646-.33843 2.58628-.94857-.36828-.48975-.45688-1.14392-.21779-1.72113C4.65408 4.17637 5.29219 3.75 6 3.75h.51756c-.17017-.29418-.26756-.63571-.26756-1Zm4 4.73243V8c0 .70781-.42638 1.34592-1.08031 1.61679-.58367.24176-1.24603.14846-1.73751-.23027C5.95849 10.7429 4.02564 11.5 2.01472 11.5H.5v.5c0 .8284.67157 1.5 1.5 1.5h8c.8284 0 1.5-.6716 1.5-1.5V7.75h-.25c-.3643 0-.7058-.0974-1-.26757ZM6 5c-.20223 0-.38455.12182-.46194.30866-.07739.18684-.03461.40189.10839.54489l.71967.71967-.63909.63909C4.74246 8.19688 3.4071 8.75 2.01472 8.75H1.25c-.414214 0-.75.33579-.75.75s.335786.75.75.75h.76472c1.79021 0 3.5071-.71116 4.77297-1.97703l.63909-.63909.71967.71967c.143.143.35805.18578.54489.10839S9 8.20223 9 8V5.5c0-.27614-.22386-.5-.5-.5H6Z" clip-rule="evenodd"></path></g></svg>
