<svg xmlns="http://www.w3.org/2000/svg" fill="none" viewBox="0 0 14 14"><g id="container-load--container-load-shipment-shipping-parcel-box"><path id="Union" fill="#000000" d="M11.1465 8.14648c.1952-.19512.5118-.19512.707 0l2 2.00002c.1427.1429.1856.3583.1084.5449-.0775.1865-.2599.3085-.4619.3086h-1.25v2.25c-.0001.4141-.3359.75-.75.75s-.7499-.3359-.75-.75V11H9.5c-.20203 0-.38439-.1221-.46191-.3086-.07727-.1867-.03443-.402.10839-.5449zM12.25 0c.4142 0 .75.335786.75.75 0 .41421-.3358.75-.75.75H12v5.32422c-.5957-.17696-1.267-.03157-1.7373.43848L8.52539 9H.75C.335786 9 0 8.66421 0 8.25s.335786-.75.75-.75H1v-6H.75C.335786 1.5 0 1.16421 0 .75 0 .335786.335786 0 .75 0zM3.4375 1.875c-.34518 0-.625.27982-.625.625v4c0 .34518.27982.625.625.625s.625-.27982.625-.625v-4c0-.34518-.27982-.625-.625-.625m3.0625 0c-.34518 0-.625.27982-.625.625v4c0 .34518.27982.625.625.625s.625-.27982.625-.625v-4c0-.34518-.27982-.625-.625-.625m3.0625 0c-.34518 0-.625.27982-.625.625v3c0 .34518.27982.625.625.625s.625-.27982.625-.625v-3c0-.34518-.27982-.625-.625-.625"></path></g></svg>
