<svg xmlns="http://www.w3.org/2000/svg" fill="none" viewBox="0 0 14 14"><g id="cookie-settings-off--cookie-settings-off-cross-no-permission-disabled"><path id="Union" fill="#000000" fill-rule="evenodd" d="M2.6089 1.54824 1.28033.21967c-.292893-.2928933-.767767-.2928933-1.06066 0-.2928933.292893-.2928933.767767 0 1.06066L12.7197 13.7803c.2929.2929.7677.2929 1.0606 0 .2929-.2929.2929-.7677 0-1.0606l-1.3285-1.3286C13.4202 10.1902 14 8.66283 14 7c0-.17596-.0065-.3505-.0193-.52337-.0134-.18152-.1244-.34141-.2898-.41742-.1654-.07601-.359-.05614-.5055.05187C12.8537 6.35563 12.4444 6.5 12 6.5c-1.1046 0-2-.89543-2-2 0-.01344.0001-.02686.0004-.04027.003-.15176-.06313-.29666-.17971-.39386-.11658-.09721-.27101-.13619-.41976-.10597C9.27181 3.98614 9.13778 4 9 4c-1.10457 0-2-.89543-2-2 0-.45082.14856-.86549.3996-1.199711.11378-.151481.13218-.354259.04751-.52374C7.36244.107067 7.18926-.0000051256 6.9998 0 5.33705.0000451972 3.80971.579829 2.6089 1.54824Zm8.2131 8.21315L9.6842 8.62354c.07188-.48169.4873-.85115.989-.85115.5523 0 1 .44771 1 1 0 .5017-.3695.91711-.8512.989ZM0 7c0-1.11207.259325-2.16358.720801-3.09734L2.56741 5.74927c-.33566.16132-.56737.50452-.56737.90183 0 .55229.44771 1 1 1 .39731 0 .74051-.23171.90183-.56737l6.19543 6.19547C9.16358 13.7407 8.11207 14 7 14c-3.86599 0-7-3.134-7-7Zm6.00004 4.1747c0-.5523-.44772-1-1-1-.55229 0-1 .4477-1 1s.44771 1 1 1c.55228 0 1-.4477 1-1Z" clip-rule="evenodd"></path></g></svg>
