<svg xmlns="http://www.w3.org/2000/svg" fill="none" viewBox="0 0 14 14" height="14" width="14">
  <g id="date-5-calendar--date-5-calendar-day">
    <path id="Subtract" fill="#000000" d="M10.5 0.5c0.5523 0 1 0.447715 1 1v1h0.5c0.8284 0 1.5 0.67157 1.5 1.5v8c0 0.8284 -0.6716 1.5 -1.5 1.5H2c-0.82843 0 -1.499999 -0.6716 -1.5 -1.5V4c0 -0.82843 0.67157 -1.5 1.5 -1.5h0.5v-1c0 -0.552285 0.44772 -1 1 -1s1 0.447715 1 1v1h5v-1c0 -0.552285 0.44771 -1 1 -1M5.875 5.375c-0.30552 0 -0.56598 0.22109 -0.61621 0.52246l-0.375 2.25c-0.03853 0.23179 0.0561 0.46587 0.24512 0.60547 0.18904 0.13946 0.44024 0.16071 0.65039 0.05566l0.27539 -0.13671c0.22562 -0.1128 0.47432 -0.17188 0.72656 -0.17188H7.375c0.27614 0 0.5 0.22386 0.5 0.5v0.375l-0.00977 0.10059c-0.04657 0.2279 -0.24856 0.39941 -0.49023 0.39941h-0.75c-0.21659 0 -0.40264 -0.13815 -0.47168 -0.33301 -0.11503 -0.32544 -0.4724 -0.49589 -0.79785 -0.38086 -0.32509 0.11515 -0.49564 0.47164 -0.38086 0.79688 0.23997 0.67879 0.88749 1.16699 1.65039 1.16699h0.75c0.96646 0 1.74993 -0.7836 1.75 -1.75V9c0 -0.9665 -0.7835 -1.75 -1.75 -1.75h-0.59375c-0.16409 0 -0.32758 0.01333 -0.48828 0.04102L6.4043 6.625h1.9082c0.34514 0 0.62493 -0.27988 0.625 -0.625 0 -0.34518 -0.27982 -0.625 -0.625 -0.625z" stroke-width="1"></path>
  </g>
</svg>