<svg xmlns="http://www.w3.org/2000/svg" fill="none" viewBox="0 0 14 14"><g id="face-woman--face-woman-user-female"><path id="Union" fill="#000000" fill-rule="evenodd" d="M3 .5C1.61929.5.5 1.61929.5 3c0 .8971.472476 1.68301 1.18075 2.12386.59978-1.59341 1.78475-2.90015 3.29297-3.65828C4.51648.878143 3.80273.5 3 .5ZM8 13c-3.03757 0-5.5-2.4624-5.5-5.5 0-.30561.02493-.60539.07285-.89744.03355.00744.06816.01221.10361.01406.10713.00558.21493.00841.32334.00841 1.52871 0 2.92724-.56066 4-1.48641 1.07276.92575 2.47128 1.48641 4 1.48641.8263 0 1.6158-.16397 2.3367-.46167.1068.4279.1635.87565.1635 1.33664 0 3.0376-2.4624 5.5-5.5 5.5Zm4.8964-8.00752c-.5821.24613-1.2226.38255-1.8966.38255-1.39699 0-2.65591-.5868-3.54553-1.52912-.11808-.12507-.28247-.19595-.45447-.19595s-.3364.07088-.45447.19595c-.88962.94232-2.14854 1.52912-3.54553 1.52912-.02473 0-.04941-.00019-.07404-.00055C3.75706 3.39229 5.71594 2 8 2c2.1343 0 3.9847 1.21573 4.8964 2.99248ZM5.75 7.125c.48325 0 .875.39175.875.875s-.39175.875-.875.875-.875-.39175-.875-.875.39175-.875.875-.875ZM11.125 8c0-.48325-.3918-.875-.875-.875-.48325 0-.875.39175-.875.875s.39175.875.875.875c.4832 0 .875-.39175.875-.875ZM5.72063 9.691c.30562-.15281.67659-.03173.83378.27021l.00438.00741c.00698.01149.02104.03348.04291.06268.04395.0586.11757.1436.22637.2307.20967.1677.57389.363 1.17207.363.53425 0 .87972-.1557 1.09466-.3052.13827-.0963.23174-.1967.28814-.2682.0281-.0357.04643-.06343.05597-.0788.00361-.0058.0059-.00975.00695-.01158.1572-.30195.52817-.42303.83374-.27022.3088.15437.4339.5298.2796.8385l-.5591-.2795c.5591.2795.559.2797.5589.2799l-.0002.0004-.0004.0007-.0008.0017-.0019.0036-.0045.0086c-.0033.0064-.0074.0139-.0122.0226-.0096.0173-.0223.0391-.0381.0647-.0317.051-.0766.1175-.1363.1933-.1192.1512-.2999.3422-.55574.5202-.41607.2896-1.00909.5293-1.80872.5293-.90183 0-1.53761-.3047-1.95294-.6369-.2037-.163-.34882-.3279-.4455-.4568-.04844-.0646-.08516-.1208-.11139-.164-.01313-.0216-.02369-.0401-.03183-.0549l-.01042-.0193-.0039-.0076-.00162-.0032-.00074-.0014-.00035-.0007c-.00016-.0003-.00033-.0007.55869-.2802l-.55902.2795c-.15437-.3087-.02923-.68413.27951-.8385Z" clip-rule="evenodd"></path></g></svg>
