<svg xmlns="http://www.w3.org/2000/svg" fill="none" viewBox="0 0 14 14" height="14" width="14">
  <g id="file-star-favorite--file-star-favorite-document-bookmark">
    <path id="Union" fill="#000000" d="M10.0983 0.00976562c0.0961 0.01920188 0.1855 0.06637518 0.2559 0.13671838l3.5 3.499996c0.0937 0.09376 0.1465 0.22097 0.1465 0.35352v8.5c0 0.3978 -0.1583 0.7793 -0.4395 1.0605 -0.2812 0.2813 -0.6628 0.4394 -1.0605 0.4395H7.86003c0.00739 -0.0176 0.01556 -0.0349 0.02246 -0.0527 0.12863 -0.3322 0.16644 -0.6921 0.11328 -1.043h0.00098l-0.17578 -1.2363 0.78808 -0.75c0.27615 -0.2617 0.47483 -0.5956 0.57129 -0.9639 0.0857 -0.32775 0.08856 -0.67134 0.00879 -0.99902l-0.03906 -0.13867 -0.04883 -0.13672c-0.12536 -0.31321 -0.32771 -0.5915 -0.58789 -0.8086 -0.28809 -0.24022 -0.63721 -0.39524 -1.00781 -0.45019l0.00097 -0.00098 -1.16308 -0.17676 -0.52246 -1.05175c-0.00416 -0.00836 -0.00841 -0.01711 -0.0127 -0.02539 -0.17496 -0.33787 -0.44164 -0.62078 -0.76855 -0.81543 -0.28588 -0.17009 -0.60868 -0.26731 -0.93946 -0.28418l-0.14257 -0.00293c-0.33287 0.0064 -0.65916 0.09438 -0.94922 0.25488l-0.12207 0.07324c-0.30861 0.20017 -0.5563 0.48104 -0.71875 0.81055v-0.00098l-0.167 0.33496V1.5c0 -0.39782 0.15815 -0.779242 0.43946 -1.060547C2.7214 0.158229 3.10289 0 3.50065 0h6.50005zM4.0905 6.31934c0.07236 0.00874 0.1437 0.0275 0.21094 0.05566l0.09863 0.0498 0.08984 0.0625c0.0571 0.04579 0.10802 0.09951 0.15039 0.15918l0.05664 0.09375 0.00391 0.00684v0.00098l0.8125 1.63379 1.79394 0.27246c0.14849 0.01932 0.28923 0.08096 0.4043 0.17675 0.08622 0.07193 0.15637 0.1615 0.20508 0.26172l0.04199 0.1045 0.02637 0.10839c0.01864 0.10997 0.01377 0.22331 -0.01465 0.33204 -0.03755 0.14335 -0.11584 0.27244 -0.22363 0.374l0.00097 0.001 -1.25683 1.1934 0.26758 1.874h-0.00196c0.02328 0.1395 0.01118 0.2827 -0.04004 0.415 -0.05523 0.1425 -0.15139 0.2661 -0.27539 0.3555 -0.12389 0.0892 -0.27134 0.1411 -0.42382 0.1484 -0.14582 0.0069 -0.2903 -0.0283 -0.41797 -0.0986v0.0019l-1.60645 -0.8505 -1.60547 0.8505 -0.00097 -0.0019c-0.12756 0.07 -0.27141 0.1056 -0.417 0.0986 -0.15237 -0.0074 -0.30003 -0.0593 -0.42382 -0.1484 -0.12379 -0.0894 -0.22022 -0.2131 -0.27539 -0.3555 -0.05266 -0.1361 -0.06535 -0.2844 -0.03907 -0.4277h-0.00097l0.30664 -1.8213L0.237959 10.001l-0.010742 -0.00979c-0.101466 -0.103 -0.1727778 -0.23234 -0.206055 -0.37305 -0.0331918 -0.14098 -0.02734299 -0.28906 0.0175781 -0.42675l0.0410156 -0.10059C0.126963 8.99386 0.19355 8.90658 0.276045 8.83594c0.110032 -0.09412 0.244777 -0.15645 0.387695 -0.17969l0.006836 -0.00098 1.802734 -0.26465 0.8125 -1.63281v0.00098c0.06282 -0.12938 0.15953 -0.23999 0.28027 -0.31836l0.09571 -0.05273c0.09932 -0.04635 0.20799 -0.07197 0.31836 -0.07422z" stroke-width="1"></path>
  </g>
</svg>