<svg xmlns="http://www.w3.org/2000/svg" fill="none" viewBox="0 0 14 14" id="Laptop-Personal-Hotspot--Streamline-Core"><desc>Laptop Personal Hotspot Streamline Icon: https://streamlinehq.com</desc><g id="laptop-personal-hotspot--laptop-personal-hotspot-connection-signal-device-electronics-computer-notebook"><path id="Union" fill="#000000" fill-rule="evenodd" d="M8.125 1.25C7.50368 1.25 7 1.75368 7 2.375c0 .2146.05948.4134.16252.58296.17926.29498.08546.67943-.20952.85869-.29498.17926-.67943.08545-.85869-.20953C5.87573 3.24745 5.75 2.82495 5.75 2.375 5.75 1.06332 6.81332 0 8.125 0h1.5C10.9367 0 12 1.06332 12 2.375c0 .72966-.3298 1.38289-.8462 1.81758-.2641.22229-.6584.18841-.8806-.07566-.2223-.26408-.1885-.65835.0756-.88064.2463-.20735.4012-.51593.4012-.86128 0-.62132-.5037-1.125-1.125-1.125h-1.5ZM3 4.75c0-.13807.11193-.25.25-.25h.9375c.41421 0 .75-.33579.75-.75S4.60171 3 4.1875 3H3.25c-.9665 0-1.75.7835-1.75 1.75v4.63197L.138197 12.1056C.0473146 12.2873 0 12.4878 0 12.691 0 13.4139.586067 14 1.30902 14H12.691c.7229 0 1.309-.5861 1.309-1.309 0-.2032-.0473-.4037-.1382-.5854L12.5 9.38197V8.25c0-.41421-.3358-.75-.75-.75s-.75.33579-.75.75V9H3V4.75Zm6.64318-1.642c.31179-.14812.44452-.52094.29636-.83273-.14812-.31178-.52094-.44446-.83272-.29635C8.30588 2.3594 7.75 3.17669 7.75 4.12505c0 1.31168 1.06332 2.375 2.375 2.375h1.5c1.3117 0 2.375-1.06332 2.375-2.375 0-.43547-.1178-.84533-.3236-1.19741-.1742-.29799-.557-.39833-.855-.22411-.298.17421-.3983.55701-.2241.855.0969.16586.1527.35873.1527.56652 0 .62132-.5037 1.125-1.125 1.125h-1.5c-.62132 0-1.125-.50368-1.125-1.125 0-.44784.26165-.83581.64318-1.01705Z" clip-rule="evenodd"></path></g></svg>
