<svg xmlns="http://www.w3.org/2000/svg" fill="none" viewBox="0 0 14 14" id="Line-Arrow-Bend-Up-Right--Streamline-Core"><desc>Line Arrow Bend Up Right Streamline Icon: https://streamlinehq.com</desc><g id="line-arrow-bend-up-right--arrow-bend-curve-change-direction-up-to-right"><path id="Union" fill="#000000" fill-rule="evenodd" d="M11.2071 2.29289c-.3905-.39052-1.0237-.39052-1.41421 0-.39052.39053-.39052 1.02369 0 1.41422L10.5858 4.5H2c-1.104569 0-2 .89543-2 2V11c0 .5523.447715 1 1 1 .55228 0 1-.4477 1-1V6.5h8.5858l-.79291.79289c-.39052.39053-.39052 1.02369 0 1.41422.39051.39052 1.02371.39052 1.41421 0l2.4994-2.49941c.0024-.00237.0048-.00475.0071-.00715.1765-.17976.2856-.42592.2864-.69755l0-.003 0-.003c-.0004-.1345-.0273-.26275-.0759-.37978-.0484-.11708-.1201-.22682-.2149-.3222m-2.5021-2.50213 2.4995 2.49954-2.4995-2.49954Z" clip-rule="evenodd"></path></g></svg>
