<svg xmlns="http://www.w3.org/2000/svg" fill="none" viewBox="0 0 14 14" id="Number-Eight-Circle--Streamline-Core"><desc>Number Eight Circle Streamline Icon: https://streamlinehq.com</desc><g id="number-eight-circle--number-eight-circle-mathematics-equation-text"><path id="Subtract" fill="#000000" fill-rule="evenodd" d="M14 7c0 3.866-3.134 7-7 7-3.86599 0-7-3.134-7-7 0-3.86599 3.13401-7 7-7 3.866 0 7 3.13401 7 7Zm-6.625-.875c.41421 0 .75-.33579.75-.75 0-.41422-.33579-.75-.75001-.75l-.75.00001c-.41421 0-.74999.33578-.74999.74999 0 .41422.33578.75.75.75h.75Zm-2.75-.75c0-1.10456.89542-1.99998 1.99998-1.99999l.75-.00001c1.10458-.00001 2.00002.89542 2.00002 2 0 .48873-.1753.93652-.46645 1.28391.43944.38931.71645.95787.71645 1.59114v.25c0 1.17361-.95139 2.12495-2.12499 2.12505l-1 0c-1.17361 0-2.12501-.95144-2.12501-2.12504v-.25001c0-.63327.27701-1.20183.71645-1.59114C4.8003 6.31152 4.625 5.86373 4.625 5.375ZM7.5 9.37505l-.99999.00001c-.48325 0-.87501-.39175-.87501-.875v-.25001c0-.48325.39176-.875.87501-.875H7.5c.48325 0 .875.39175.875.875v.25c0 .48325-.39175.875-.875.875Z" clip-rule="evenodd"></path></g></svg>
