<svg xmlns="http://www.w3.org/2000/svg" fill="none" viewBox="0 0 14 14" id="Pen-2--Streamline-Core" height="14" width="14">
  <desc>
    Pen 2 Streamline Icon: https://streamlinehq.com
  </desc>
  <g id="pen-2--content-creation-edit-fountain-pen-write">
    <path id="Union" fill="#000000" fill-rule="evenodd" d="M13.4059 0.594184c-0.3569 -0.352335 -0.83 -0.5624157 -1.3307 -0.5908641 -0.5007 -0.0284483 -0.9946 0.1266891 -1.3891 0.4363331L5.02748 4.42422c-0.19123 0.13465 -0.32921 0.33207 -0.38995 0.55792l-0.51399 1.91119c0.18836 0.05162 0.37319 0.11697 0.55295 0.19575 0.49471 0.21682 0.94066 0.53076 1.31149 0.92302 0.39227 0.37083 0.7062 0.81678 0.92302 1.3115 0.07878 0.17976 0.14414 0.36458 0.19575 0.55295l1.91119 -0.514c0.22586 -0.06074 0.42328 -0.19872 0.55793 -0.38994l3.98453 -5.65867c0.3097 -0.39449 0.4648 -0.88837 0.4364 -1.38906 -0.0285 -0.50069 -0.2386 -0.973819 -0.5909 -1.330696ZM5.09497 12.9961c0.28264 -0.2605 0.50823 -0.5768 0.66253 -0.9288 0.1543 -0.3521 0.23396 -0.7323 0.23396 -1.1167 0 -0.3844 -0.07966 -0.7646 -0.23396 -1.1167 -0.1543 -0.35207 -0.37989 -0.66834 -0.66253 -0.92886 -0.26053 -0.28265 -0.5768 -0.50824 -0.92887 -0.66253 -0.35207 -0.1543 -0.73229 -0.23397 -1.11669 -0.23397 -0.38439 0 -0.76462 0.07967 -1.11669 0.23397 -0.35207 0.15429 -0.66834 0.37988 -0.92886 0.66253C0.251577 9.65732 0.0526189 12.0696 0 13.2929l2.5754 -2.5754c0.19527 -0.1953 0.51185 -0.1953 0.70711 0s0.19526 0.5118 0 0.7071L0.707107 14c1.223333 -0.0526 3.635583 -0.2516 4.387863 -1.0039Z" clip-rule="evenodd" stroke-width="1"></path>
  </g>
</svg>
