<svg xmlns="http://www.w3.org/2000/svg" fill="none" viewBox="0 0 14 14"><g id="pet-paw-not-allowed--pet-paw-not-allowed-map-travel-hotel"><path id="Subtract" fill="#000000" d="M.219727.219238c.292932-.2924048.767816-.2927302 1.060543 0L3.3457 2.28467c.06388-.22796.15918-.43891.28125-.62207.24056-.36084.62772-.66211 1.12305-.66211s.88249.30127 1.12305.66211c.24281.36431.37695.83882.37695 1.33789-.00004.49906-.13412.97361-.37695 1.33789-.06148.0922-.13291.18036-.21289.26074L7.0625 6.00244c1.32156.02052 2.31209.68889 2.96 1.54004.5499.72257.8676 1.59559.9521 2.37109l2.8066 2.80763c.2924.2929.2927.7678 0 1.0605-.2745.2745-.7093.291-1.0039.0508L.449219 1.50342C.437904 1.4921.42405 1.48341.412109 1.47314l-.192382-.19238c-.2928592-.292857-.2927902-.76862 0-1.061522M9.58984 12.4136l-.00195.0019c-.76386.4051-1.72437.585-2.58789.585s-1.82403-.1799-2.58789-.585C3.64337 12.0079 3.00016 11.3228 3 10.3188c0-.86394.32917-1.92445.97754-2.77632.10508-.13805.21968-.27102.34277-.39746zM1.5 5.00049c.49533 0 .88249.30127 1.12305.66211C2.86586 6.02691 3 6.50142 3 7.00049c-.00004.49906-.13412.97361-.37695 1.33789-.24057.36077-.62778.66211-1.12305.66211S.617519 8.69915.376953 8.33838C.134116 7.9741.0000370338 7.49955 0 7.00049c0-.49907.134143-.97358.376953-1.33789.240559-.36084.627717-.66211 1.123047-.66211m11 0c.4953 0 .8825.30127 1.123.66211.2429.36431.377.83882.377 1.33789 0 .49906-.1341.97361-.377 1.33789-.2405.36077-.6277.66211-1.123.66211s-.8825-.30134-1.123-.66211C11.1341 7.9741 11 7.49955 11 7.00049c0-.49907.1341-.97358.377-1.33789.2405-.36084.6277-.66211 1.123-.66211m-3.25-4c.49533 0 .8825.30127 1.123.66211.2429.36431.377.83882.377 1.33789 0 .49906-.1341.97361-.377 1.33789-.2405.36077-.62773.66211-1.123.66211s-.88248-.30134-1.12305-.66211c-.24283-.36428-.37691-.83883-.37695-1.33789 0-.49907.13414-.97358.37695-1.33789.24056-.36084.62772-.66211 1.12305-.66211"></path></g></svg>
