<svg xmlns="http://www.w3.org/2000/svg" fill="none" viewBox="0 0 14 14" id="Service-Mark--Streamline-Core" height="14" width="14">
  <desc>
    Service Mark Streamline Icon: https://streamlinehq.com
  </desc>
  <g id="service-mark--logo-sm-trademark">
    <path id="Subtract" fill="#000000" fill-rule="evenodd" d="M14 7c0 3.866 -3.134 7 -7 7 -3.86599 0 -7 -3.134 -7 -7 0 -3.86599 3.13401 -7 7 -7 3.866 0 7 3.13401 7 7ZM2.33984 5.89263c0 -0.83816 0.67947 -1.51763 1.51764 -1.51763h0.77403c0.48133 0 0.91442 0.21006 1.21108 0.54151 0.1395 0.15587 0.24972 0.33938 0.32129 0.54188 0.11503 0.32544 -0.05554 0.68252 -0.38099 0.79755 -0.32545 0.11503 -0.68253 -0.05555 -0.79756 -0.38099 -0.01623 -0.04592 -0.04149 -0.0883 -0.07416 -0.1248 -0.06956 -0.07771 -0.16866 -0.12515 -0.27966 -0.12515h-0.77403c-0.14781 0 -0.26764 0.11982 -0.26764 0.26763 0 0.12577 0.08758 0.23458 0.21044 0.26145l1.17849 0.2578c0.74623 0.16323 1.27774 0.82433 1.27774 1.58775 0 0.89717 -0.72724 1.62537 -1.625 1.62537h-0.66667c-0.70851 0 -1.30959 -0.45308 -1.53237 -1.08339 -0.11503 -0.32544 0.05555 -0.68252 0.381 -0.79755 0.32544 -0.11503 0.68252 0.05555 0.79755 0.38099 0.05178 0.1465 0.19152 0.24995 0.35382 0.24995h0.66667c0.20681 0 0.375 -0.16796 0.375 -0.37537 0 -0.17645 -0.12292 -0.32902 -0.29486 -0.36663l-1.17849 -0.25779c-0.69672 -0.15241 -1.19332 -0.76938 -1.19332 -1.48258ZM8.32683 9V6.7404l0.25116 0.43056c0.16401 0.28115 0.46501 0.45404 0.79051 0.45404 0.32549 0 0.6265 -0.17289 0.7905 -0.45404l0.2512 -0.43056V9c0 0.34518 0.2798 0.625 0.625 0.625 0.3451 0 0.625 -0.27982 0.625 -0.625V5.21172c0 -0.46211 -0.3747 -0.83672 -0.8368 -0.83672 -0.2976 0 -0.5728 0.15807 -0.7227 0.41512l-0.7322 1.2552 -0.7322 -1.2552c-0.14995 -0.25705 -0.42515 -0.41512 -0.72275 -0.41512 -0.46211 0 -0.83672 0.37462 -0.83672 0.83673V9c0 0.34518 0.27982 0.625 0.625 0.625s0.625 -0.27982 0.625 -0.625Z" clip-rule="evenodd" stroke-width="1"></path>
  </g>
</svg>